<mxfile host="Electron" agent="Mozilla/5.0 (Windows NT 10.0; Win64; x64) AppleWebKit/537.36 (KHTML, like Gecko) draw.io/26.0.9 Chrome/128.0.6613.186 Electron/32.2.5 Safari/537.36" version="26.0.9">
  <diagram name="Page-1" id="V0pw2Zb20UL2xj4cE1I4">
    <mxGraphModel dx="1358" dy="1831" grid="1" gridSize="10" guides="1" tooltips="1" connect="1" arrows="1" fold="1" page="1" pageScale="1" pageWidth="827" pageHeight="1169" math="0" shadow="0">
      <root>
        <mxCell id="0" />
        <mxCell id="1" parent="0" />
        <mxCell id="ZhXPPXgodXc87nbnoY75-1" value="Customer" style="shape=umlLifeline;perimeter=lifelinePerimeter;whiteSpace=wrap;html=1;container=0;dropTarget=0;collapsible=0;recursiveResize=0;outlineConnect=0;portConstraint=eastwest;newEdgeStyle={&quot;edgeStyle&quot;:&quot;elbowEdgeStyle&quot;,&quot;elbow&quot;:&quot;vertical&quot;,&quot;curved&quot;:0,&quot;rounded&quot;:0};fillColor=#fad9d5;strokeColor=#ae4132;" parent="1" vertex="1">
          <mxGeometry x="40" y="40" width="100" height="370" as="geometry" />
        </mxCell>
        <mxCell id="ZhXPPXgodXc87nbnoY75-2" value="" style="html=1;points=[];perimeter=orthogonalPerimeter;outlineConnect=0;targetShapes=umlLifeline;portConstraint=eastwest;newEdgeStyle={&quot;edgeStyle&quot;:&quot;elbowEdgeStyle&quot;,&quot;elbow&quot;:&quot;vertical&quot;,&quot;curved&quot;:0,&quot;rounded&quot;:0};fillColor=#fad9d5;strokeColor=#ae4132;" parent="ZhXPPXgodXc87nbnoY75-1" vertex="1">
          <mxGeometry x="45" y="70" width="10" height="300" as="geometry" />
        </mxCell>
        <mxCell id="ZhXPPXgodXc87nbnoY75-4" value="Cratopia&#39;s Customization Request Scenerio" style="text;html=1;align=center;verticalAlign=middle;whiteSpace=wrap;rounded=0;fillColor=#fad9d5;strokeColor=#ae4132;" parent="1" vertex="1">
          <mxGeometry x="230" y="-30" width="240" height="30" as="geometry" />
        </mxCell>
        <mxCell id="ZhXPPXgodXc87nbnoY75-5" value="Artist" style="shape=umlLifeline;perimeter=lifelinePerimeter;whiteSpace=wrap;html=1;container=0;dropTarget=0;collapsible=0;recursiveResize=0;outlineConnect=0;portConstraint=eastwest;newEdgeStyle={&quot;edgeStyle&quot;:&quot;elbowEdgeStyle&quot;,&quot;elbow&quot;:&quot;vertical&quot;,&quot;curved&quot;:0,&quot;rounded&quot;:0};fillColor=#fad9d5;strokeColor=#ae4132;" parent="1" vertex="1">
          <mxGeometry x="300" y="40" width="100" height="390" as="geometry" />
        </mxCell>
        <mxCell id="ZhXPPXgodXc87nbnoY75-6" value="" style="html=1;points=[];perimeter=orthogonalPerimeter;outlineConnect=0;targetShapes=umlLifeline;portConstraint=eastwest;newEdgeStyle={&quot;edgeStyle&quot;:&quot;elbowEdgeStyle&quot;,&quot;elbow&quot;:&quot;vertical&quot;,&quot;curved&quot;:0,&quot;rounded&quot;:0};fillColor=#fad9d5;strokeColor=#ae4132;" parent="ZhXPPXgodXc87nbnoY75-5" vertex="1">
          <mxGeometry x="45" y="70" width="10" height="120" as="geometry" />
        </mxCell>
        <mxCell id="ZhXPPXgodXc87nbnoY75-31" value="" style="html=1;points=[];perimeter=orthogonalPerimeter;outlineConnect=0;targetShapes=umlLifeline;portConstraint=eastwest;newEdgeStyle={&quot;edgeStyle&quot;:&quot;elbowEdgeStyle&quot;,&quot;elbow&quot;:&quot;vertical&quot;,&quot;curved&quot;:0,&quot;rounded&quot;:0};fillColor=#fad9d5;strokeColor=#ae4132;" parent="ZhXPPXgodXc87nbnoY75-5" vertex="1">
          <mxGeometry x="45" y="290" width="10" height="100" as="geometry" />
        </mxCell>
        <mxCell id="ZhXPPXgodXc87nbnoY75-9" value="View offer details()" style="html=1;verticalAlign=bottom;endArrow=block;edgeStyle=elbowEdgeStyle;elbow=vertical;curved=0;rounded=0;" parent="1" target="ZhXPPXgodXc87nbnoY75-26" edge="1">
          <mxGeometry x="0.0233" relative="1" as="geometry">
            <mxPoint x="95" y="270.0000000000002" as="sourcePoint" />
            <Array as="points">
              <mxPoint x="180" y="270" />
            </Array>
            <mxPoint x="640" y="270" as="targetPoint" />
            <mxPoint as="offset" />
          </mxGeometry>
        </mxCell>
        <mxCell id="ZhXPPXgodXc87nbnoY75-11" value="Accept the Offer()&amp;nbsp;" style="html=1;verticalAlign=bottom;endArrow=block;edgeStyle=elbowEdgeStyle;elbow=vertical;curved=0;rounded=0;" parent="1" edge="1">
          <mxGeometry x="0.1905" relative="1" as="geometry">
            <mxPoint x="95.5" y="310" as="sourcePoint" />
            <Array as="points">
              <mxPoint x="195.5" y="310" />
            </Array>
            <mxPoint x="645" y="310" as="targetPoint" />
            <mxPoint as="offset" />
          </mxGeometry>
        </mxCell>
        <mxCell id="ZhXPPXgodXc87nbnoY75-12" value="Artist&amp;nbsp;" style="shape=umlLifeline;perimeter=lifelinePerimeter;whiteSpace=wrap;html=1;container=0;dropTarget=0;collapsible=0;recursiveResize=0;outlineConnect=0;portConstraint=eastwest;newEdgeStyle={&quot;edgeStyle&quot;:&quot;elbowEdgeStyle&quot;,&quot;elbow&quot;:&quot;vertical&quot;,&quot;curved&quot;:0,&quot;rounded&quot;:0};fillColor=#fad9d5;strokeColor=#ae4132;" parent="1" vertex="1">
          <mxGeometry x="485" y="920" width="100" height="630" as="geometry" />
        </mxCell>
        <mxCell id="ZhXPPXgodXc87nbnoY75-25" value="Craftopia Customization Request System" style="shape=umlLifeline;perimeter=lifelinePerimeter;whiteSpace=wrap;html=1;container=0;dropTarget=0;collapsible=0;recursiveResize=0;outlineConnect=0;portConstraint=eastwest;newEdgeStyle={&quot;edgeStyle&quot;:&quot;elbowEdgeStyle&quot;,&quot;elbow&quot;:&quot;vertical&quot;,&quot;curved&quot;:0,&quot;rounded&quot;:0};fillColor=#fad9d5;strokeColor=#ae4132;" parent="1" vertex="1">
          <mxGeometry x="570" y="40" width="157" height="380" as="geometry" />
        </mxCell>
        <mxCell id="ZhXPPXgodXc87nbnoY75-26" value="" style="html=1;points=[];perimeter=orthogonalPerimeter;outlineConnect=0;targetShapes=umlLifeline;portConstraint=eastwest;newEdgeStyle={&quot;edgeStyle&quot;:&quot;elbowEdgeStyle&quot;,&quot;elbow&quot;:&quot;vertical&quot;,&quot;curved&quot;:0,&quot;rounded&quot;:0};fillColor=#fad9d5;strokeColor=#ae4132;" parent="ZhXPPXgodXc87nbnoY75-25" vertex="1">
          <mxGeometry x="73.5" y="70" width="10" height="320" as="geometry" />
        </mxCell>
        <mxCell id="ZhXPPXgodXc87nbnoY75-30" value="Submit Offer()" style="html=1;verticalAlign=bottom;endArrow=block;edgeStyle=elbowEdgeStyle;elbow=vertical;curved=0;rounded=0;" parent="1" edge="1">
          <mxGeometry x="0.0755" relative="1" as="geometry">
            <mxPoint x="355" y="204.64" as="sourcePoint" />
            <Array as="points">
              <mxPoint x="489.75" y="204.64" />
            </Array>
            <mxPoint x="645" y="204.64" as="targetPoint" />
            <mxPoint as="offset" />
          </mxGeometry>
        </mxCell>
        <mxCell id="zpv97-H2XaEhjDYaw_ze-1" value="alt" style="shape=umlFrame;whiteSpace=wrap;html=1;pointerEvents=0;fillColor=#f8cecc;strokeColor=#b85450;" parent="1" vertex="1">
          <mxGeometry x="10" y="290" width="690" height="160" as="geometry" />
        </mxCell>
        <mxCell id="zpv97-H2XaEhjDYaw_ze-2" value="" style="html=1;points=[];perimeter=orthogonalPerimeter;outlineConnect=0;targetShapes=umlLifeline;portConstraint=eastwest;newEdgeStyle={&quot;edgeStyle&quot;:&quot;elbowEdgeStyle&quot;,&quot;elbow&quot;:&quot;vertical&quot;,&quot;curved&quot;:0,&quot;rounded&quot;:0};fillColor=#fad9d5;strokeColor=#ae4132;" parent="1" vertex="1">
          <mxGeometry x="530" y="990" width="10" height="100" as="geometry" />
        </mxCell>
        <mxCell id="zpv97-H2XaEhjDYaw_ze-3" value="Admin" style="shape=umlLifeline;perimeter=lifelinePerimeter;whiteSpace=wrap;html=1;container=0;dropTarget=0;collapsible=0;recursiveResize=0;outlineConnect=0;portConstraint=eastwest;newEdgeStyle={&quot;edgeStyle&quot;:&quot;elbowEdgeStyle&quot;,&quot;elbow&quot;:&quot;vertical&quot;,&quot;curved&quot;:0,&quot;rounded&quot;:0};fillColor=#fad9d5;strokeColor=#ae4132;" parent="1" vertex="1">
          <mxGeometry x="735" y="920" width="100" height="630" as="geometry" />
        </mxCell>
        <mxCell id="zpv97-H2XaEhjDYaw_ze-4" value="" style="html=1;points=[];perimeter=orthogonalPerimeter;outlineConnect=0;targetShapes=umlLifeline;portConstraint=eastwest;newEdgeStyle={&quot;edgeStyle&quot;:&quot;elbowEdgeStyle&quot;,&quot;elbow&quot;:&quot;vertical&quot;,&quot;curved&quot;:0,&quot;rounded&quot;:0};fillColor=#fad9d5;strokeColor=#ae4132;" parent="zpv97-H2XaEhjDYaw_ze-3" vertex="1">
          <mxGeometry x="45" y="95" width="10" height="95" as="geometry" />
        </mxCell>
        <mxCell id="zpv97-H2XaEhjDYaw_ze-5" value="Customer" style="shape=umlLifeline;perimeter=lifelinePerimeter;whiteSpace=wrap;html=1;container=0;dropTarget=0;collapsible=0;recursiveResize=0;outlineConnect=0;portConstraint=eastwest;newEdgeStyle={&quot;edgeStyle&quot;:&quot;elbowEdgeStyle&quot;,&quot;elbow&quot;:&quot;vertical&quot;,&quot;curved&quot;:0,&quot;rounded&quot;:0};fillColor=#fad9d5;strokeColor=#ae4132;" parent="1" vertex="1">
          <mxGeometry x="945" y="921" width="100" height="629" as="geometry" />
        </mxCell>
        <mxCell id="zpv97-H2XaEhjDYaw_ze-6" value="" style="html=1;points=[];perimeter=orthogonalPerimeter;outlineConnect=0;targetShapes=umlLifeline;portConstraint=eastwest;newEdgeStyle={&quot;edgeStyle&quot;:&quot;elbowEdgeStyle&quot;,&quot;elbow&quot;:&quot;vertical&quot;,&quot;curved&quot;:0,&quot;rounded&quot;:0};fillColor=#fad9d5;strokeColor=#ae4132;" parent="zpv97-H2XaEhjDYaw_ze-5" vertex="1">
          <mxGeometry x="45" y="221" width="10" height="206" as="geometry" />
        </mxCell>
        <mxCell id="DhQO_6RYLs_zfJR8aaYj-11" value="" style="html=1;points=[];perimeter=orthogonalPerimeter;outlineConnect=0;targetShapes=umlLifeline;portConstraint=eastwest;newEdgeStyle={&quot;edgeStyle&quot;:&quot;elbowEdgeStyle&quot;,&quot;elbow&quot;:&quot;vertical&quot;,&quot;curved&quot;:0,&quot;rounded&quot;:0};fillColor=#fad9d5;strokeColor=#ae4132;" parent="zpv97-H2XaEhjDYaw_ze-5" vertex="1">
          <mxGeometry x="45" y="480" width="10" height="18" as="geometry" />
        </mxCell>
        <mxCell id="zpv97-H2XaEhjDYaw_ze-7" value="Request Auction()" style="html=1;verticalAlign=bottom;endArrow=block;edgeStyle=elbowEdgeStyle;elbow=vertical;curved=0;rounded=0;" parent="1" edge="1">
          <mxGeometry x="-0.0742" relative="1" as="geometry">
            <mxPoint x="540" y="1000" as="sourcePoint" />
            <Array as="points">
              <mxPoint x="645" y="1000" />
              <mxPoint x="735" y="1010" />
            </Array>
            <mxPoint x="1240" y="1000" as="targetPoint" />
            <mxPoint x="1" as="offset" />
          </mxGeometry>
        </mxCell>
        <mxCell id="zpv97-H2XaEhjDYaw_ze-9" value="Submit Bid ()" style="html=1;verticalAlign=bottom;endArrow=block;edgeStyle=elbowEdgeStyle;elbow=vertical;curved=0;rounded=0;" parent="1" source="zpv97-H2XaEhjDYaw_ze-6" edge="1">
          <mxGeometry x="-0.0973" y="3" relative="1" as="geometry">
            <mxPoint x="1010" y="1190" as="sourcePoint" />
            <Array as="points" />
            <mxPoint x="1240.5" y="1190" as="targetPoint" />
            <mxPoint x="1" y="1" as="offset" />
          </mxGeometry>
        </mxCell>
        <mxCell id="zpv97-H2XaEhjDYaw_ze-11" value="" style="html=1;points=[];perimeter=orthogonalPerimeter;outlineConnect=0;targetShapes=umlLifeline;portConstraint=eastwest;newEdgeStyle={&quot;edgeStyle&quot;:&quot;elbowEdgeStyle&quot;,&quot;elbow&quot;:&quot;vertical&quot;,&quot;curved&quot;:0,&quot;rounded&quot;:0};fillColor=#fad9d5;strokeColor=#ae4132;" parent="1" vertex="1">
          <mxGeometry x="780" y="1450" width="10" height="30" as="geometry" />
        </mxCell>
        <mxCell id="zpv97-H2XaEhjDYaw_ze-13" value="Craftopia&#39;s Auction System" style="shape=umlLifeline;perimeter=lifelinePerimeter;whiteSpace=wrap;html=1;container=0;dropTarget=0;collapsible=0;recursiveResize=0;outlineConnect=0;portConstraint=eastwest;newEdgeStyle={&quot;edgeStyle&quot;:&quot;elbowEdgeStyle&quot;,&quot;elbow&quot;:&quot;vertical&quot;,&quot;curved&quot;:0,&quot;rounded&quot;:0};fillColor=#fad9d5;strokeColor=#ae4132;" parent="1" vertex="1">
          <mxGeometry x="1195" y="920" width="100" height="630" as="geometry" />
        </mxCell>
        <mxCell id="zpv97-H2XaEhjDYaw_ze-14" value="" style="html=1;points=[];perimeter=orthogonalPerimeter;outlineConnect=0;targetShapes=umlLifeline;portConstraint=eastwest;newEdgeStyle={&quot;edgeStyle&quot;:&quot;elbowEdgeStyle&quot;,&quot;elbow&quot;:&quot;vertical&quot;,&quot;curved&quot;:0,&quot;rounded&quot;:0};fillColor=#fad9d5;strokeColor=#ae4132;" parent="zpv97-H2XaEhjDYaw_ze-13" vertex="1">
          <mxGeometry x="45" y="70" width="10" height="510" as="geometry" />
        </mxCell>
        <mxCell id="zpv97-H2XaEhjDYaw_ze-15" value="Notify of New Auction Request()" style="html=1;verticalAlign=bottom;endArrow=block;edgeStyle=elbowEdgeStyle;elbow=vertical;curved=0;rounded=0;" parent="1" edge="1">
          <mxGeometry x="0.1333" relative="1" as="geometry">
            <mxPoint x="1240" y="1030" as="sourcePoint" />
            <Array as="points">
              <mxPoint x="1150" y="1030" />
              <mxPoint x="1060" y="1020" />
            </Array>
            <mxPoint x="790.0000000000002" y="1030" as="targetPoint" />
            <mxPoint as="offset" />
          </mxGeometry>
        </mxCell>
        <mxCell id="zpv97-H2XaEhjDYaw_ze-18" value="Accept&amp;nbsp; Auction Request()&amp;nbsp;" style="html=1;verticalAlign=bottom;endArrow=block;edgeStyle=elbowEdgeStyle;elbow=vertical;curved=0;rounded=0;" parent="1" edge="1">
          <mxGeometry x="-0.0222" relative="1" as="geometry">
            <mxPoint x="790.0000000000002" y="1070" as="sourcePoint" />
            <Array as="points">
              <mxPoint x="795" y="1070" />
            </Array>
            <mxPoint x="1240" y="1070" as="targetPoint" />
            <mxPoint as="offset" />
          </mxGeometry>
        </mxCell>
        <mxCell id="zpv97-H2XaEhjDYaw_ze-20" value="" style="html=1;points=[];perimeter=orthogonalPerimeter;outlineConnect=0;targetShapes=umlLifeline;portConstraint=eastwest;newEdgeStyle={&quot;edgeStyle&quot;:&quot;elbowEdgeStyle&quot;,&quot;elbow&quot;:&quot;vertical&quot;,&quot;curved&quot;:0,&quot;rounded&quot;:0};fillColor=#fad9d5;strokeColor=#ae4132;" parent="1" vertex="1">
          <mxGeometry x="530" y="1480" width="10" height="20" as="geometry" />
        </mxCell>
        <mxCell id="zpv97-H2XaEhjDYaw_ze-21" value="Notify Winner()" style="html=1;verticalAlign=bottom;endArrow=block;edgeStyle=elbowEdgeStyle;elbow=vertical;curved=0;rounded=0;" parent="1" edge="1">
          <mxGeometry x="0.0417" relative="1" as="geometry">
            <mxPoint x="1241" y="1410" as="sourcePoint" />
            <Array as="points">
              <mxPoint x="1136" y="1410" />
            </Array>
            <mxPoint x="1001" y="1410" as="targetPoint" />
            <mxPoint as="offset" />
          </mxGeometry>
        </mxCell>
        <mxCell id="zpv97-H2XaEhjDYaw_ze-22" value="Auction Request Approval" style="html=1;verticalAlign=bottom;endArrow=open;dashed=1;edgeStyle=elbowEdgeStyle;elbow=horizontal;curved=0;rounded=0;" parent="1" target="zpv97-H2XaEhjDYaw_ze-2" edge="1" source="zpv97-H2XaEhjDYaw_ze-14">
          <mxGeometry x="0.6259" relative="1" as="geometry">
            <mxPoint x="790" y="1080" as="targetPoint" />
            <Array as="points">
              <mxPoint x="895" y="1080" />
            </Array>
            <mxPoint x="1235" y="1080" as="sourcePoint" />
            <mxPoint as="offset" />
          </mxGeometry>
        </mxCell>
        <mxCell id="zpv97-H2XaEhjDYaw_ze-23" value="" style="endArrow=none;dashed=1;html=1;rounded=0;entryX=0.998;entryY=0.579;entryDx=0;entryDy=0;entryPerimeter=0;exitX=0;exitY=0.625;exitDx=0;exitDy=0;exitPerimeter=0;" parent="1" edge="1">
          <mxGeometry width="50" height="50" relative="1" as="geometry">
            <mxPoint x="10" y="380" as="sourcePoint" />
            <mxPoint x="700.0000000000003" y="380.00000000000006" as="targetPoint" />
          </mxGeometry>
        </mxCell>
        <mxCell id="zpv97-H2XaEhjDYaw_ze-24" value="Decline the Offer()&amp;nbsp;" style="html=1;verticalAlign=bottom;endArrow=block;edgeStyle=elbowEdgeStyle;elbow=vertical;curved=0;rounded=0;" parent="1" edge="1">
          <mxGeometry x="0.1905" relative="1" as="geometry">
            <mxPoint x="100" y="399" as="sourcePoint" />
            <Array as="points">
              <mxPoint x="185" y="399" />
            </Array>
            <mxPoint x="645" y="399" as="targetPoint" />
            <mxPoint as="offset" />
          </mxGeometry>
        </mxCell>
        <mxCell id="zpv97-H2XaEhjDYaw_ze-25" value="[offer accepeted]" style="text;html=1;align=center;verticalAlign=middle;whiteSpace=wrap;rounded=0;" parent="1" vertex="1">
          <mxGeometry x="20" y="330" width="60" height="30" as="geometry" />
        </mxCell>
        <mxCell id="zpv97-H2XaEhjDYaw_ze-26" value="[offer declined]" style="text;html=1;align=center;verticalAlign=middle;whiteSpace=wrap;rounded=0;" parent="1" vertex="1">
          <mxGeometry x="20" y="400" width="60" height="30" as="geometry" />
        </mxCell>
        <mxCell id="zpv97-H2XaEhjDYaw_ze-27" value="alt" style="shape=umlFrame;whiteSpace=wrap;html=1;pointerEvents=0;fillColor=#f8cecc;strokeColor=#b85450;" parent="1" vertex="1">
          <mxGeometry x="390" y="1045" width="960" height="475" as="geometry" />
        </mxCell>
        <mxCell id="zpv97-H2XaEhjDYaw_ze-28" value="" style="endArrow=none;dashed=1;html=1;rounded=0;exitX=0;exitY=0.833;exitDx=0;exitDy=0;exitPerimeter=0;entryX=0.999;entryY=0.836;entryDx=0;entryDy=0;entryPerimeter=0;" parent="1" edge="1">
          <mxGeometry width="50" height="50" relative="1" as="geometry">
            <mxPoint x="390" y="1429.9950000000001" as="sourcePoint" />
            <mxPoint x="1349.0400000000004" y="1431.4199999999998" as="targetPoint" />
          </mxGeometry>
        </mxCell>
        <mxCell id="zpv97-H2XaEhjDYaw_ze-29" value="[Auction request accepeted]" style="text;html=1;align=center;verticalAlign=middle;whiteSpace=wrap;rounded=0;" parent="1" vertex="1">
          <mxGeometry x="410" y="1100" width="90" height="30" as="geometry" />
        </mxCell>
        <mxCell id="zpv97-H2XaEhjDYaw_ze-30" value="[Auction request rejected]" style="text;html=1;align=center;verticalAlign=middle;whiteSpace=wrap;rounded=0;" parent="1" vertex="1">
          <mxGeometry x="410" y="1460" width="90" height="30" as="geometry" />
        </mxCell>
        <mxCell id="zpv97-H2XaEhjDYaw_ze-31" value="Reject&amp;nbsp; Auction Request()&amp;nbsp;" style="html=1;verticalAlign=bottom;endArrow=block;edgeStyle=elbowEdgeStyle;elbow=vertical;curved=0;rounded=0;" parent="1" edge="1">
          <mxGeometry x="-0.0979" relative="1" as="geometry">
            <mxPoint x="790" y="1464.47" as="sourcePoint" />
            <Array as="points">
              <mxPoint x="795" y="1464.47" />
            </Array>
            <mxPoint x="1240" y="1464.47" as="targetPoint" />
            <mxPoint as="offset" />
          </mxGeometry>
        </mxCell>
        <mxCell id="zpv97-H2XaEhjDYaw_ze-32" value="&amp;nbsp;Notify Request Rejected" style="html=1;verticalAlign=bottom;endArrow=open;dashed=1;endSize=8;edgeStyle=elbowEdgeStyle;elbow=horizontal;curved=0;rounded=0;" parent="1" edge="1">
          <mxGeometry x="0.6577" relative="1" as="geometry">
            <mxPoint x="540" y="1490" as="targetPoint" />
            <Array as="points">
              <mxPoint x="901" y="1490.05" />
            </Array>
            <mxPoint x="1241" y="1490.05" as="sourcePoint" />
            <mxPoint as="offset" />
          </mxGeometry>
        </mxCell>
        <mxCell id="zpv97-H2XaEhjDYaw_ze-35" value="Update highest bid(Bid)" style="text;html=1;align=center;verticalAlign=middle;whiteSpace=wrap;rounded=0;" parent="1" vertex="1">
          <mxGeometry x="1060" y="1280" width="140" height="20" as="geometry" />
        </mxCell>
        <mxCell id="zpv97-H2XaEhjDYaw_ze-37" value="Schedule&amp;nbsp; Auction()&amp;nbsp;" style="html=1;verticalAlign=bottom;endArrow=block;edgeStyle=elbowEdgeStyle;elbow=vertical;curved=0;rounded=0;" parent="1" edge="1">
          <mxGeometry x="-0.0222" relative="1" as="geometry">
            <mxPoint x="791.0000000000002" y="1100" as="sourcePoint" />
            <Array as="points">
              <mxPoint x="796" y="1100" />
            </Array>
            <mxPoint x="1241" y="1100" as="targetPoint" />
            <mxPoint as="offset" />
          </mxGeometry>
        </mxCell>
        <mxCell id="zpv97-H2XaEhjDYaw_ze-38" value="Join auction ()" style="html=1;verticalAlign=bottom;endArrow=block;edgeStyle=elbowEdgeStyle;elbow=horizontal;curved=0;rounded=0;exitX=1;exitY=0.109;exitDx=0;exitDy=0;exitPerimeter=0;" parent="1" source="zpv97-H2XaEhjDYaw_ze-6" edge="1">
          <mxGeometry x="-0.0973" y="3" relative="1" as="geometry">
            <mxPoint x="1010" y="1165" as="sourcePoint" />
            <Array as="points" />
            <mxPoint x="1240.5" y="1164.52" as="targetPoint" />
            <mxPoint x="1" y="1" as="offset" />
          </mxGeometry>
        </mxCell>
        <mxCell id="zpv97-H2XaEhjDYaw_ze-40" value="Start aution()" style="text;html=1;align=center;verticalAlign=middle;whiteSpace=wrap;rounded=0;" parent="1" vertex="1">
          <mxGeometry x="1110" y="1110" width="95" height="30" as="geometry" />
        </mxCell>
        <mxCell id="zpv97-H2XaEhjDYaw_ze-43" value="Check bid range(Bid)" style="text;html=1;align=center;verticalAlign=middle;whiteSpace=wrap;rounded=0;" parent="1" vertex="1">
          <mxGeometry x="1080" y="1210" width="120" height="20" as="geometry" />
        </mxCell>
        <mxCell id="zpv97-H2XaEhjDYaw_ze-44" value="Bid accepted" style="html=1;verticalAlign=bottom;endArrow=open;dashed=1;endSize=8;edgeStyle=elbowEdgeStyle;elbow=horizontal;curved=0;rounded=0;" parent="1" edge="1">
          <mxGeometry x="0.5021" relative="1" as="geometry">
            <mxPoint x="1000" y="1270" as="targetPoint" />
            <Array as="points">
              <mxPoint x="1028" y="1270" />
            </Array>
            <mxPoint x="1241" y="1270" as="sourcePoint" />
            <mxPoint as="offset" />
          </mxGeometry>
        </mxCell>
        <mxCell id="ZhXPPXgodXc87nbnoY75-27" value="Browse Customization Requests ()" style="html=1;verticalAlign=bottom;endArrow=block;edgeStyle=elbowEdgeStyle;elbow=vertical;curved=0;rounded=0;" parent="1" edge="1">
          <mxGeometry x="0.1168" relative="1" as="geometry">
            <mxPoint x="355" y="130" as="sourcePoint" />
            <Array as="points">
              <mxPoint x="630" y="130" />
            </Array>
            <mxPoint x="645" y="130" as="targetPoint" />
            <mxPoint as="offset" />
          </mxGeometry>
        </mxCell>
        <mxCell id="qPt5Wxt3EMSxar55PLhZ-1" value="Notify customer of the artist&#39;s offer()" style="html=1;verticalAlign=bottom;endArrow=block;edgeStyle=elbowEdgeStyle;elbow=vertical;curved=0;rounded=0;" parent="1" edge="1">
          <mxGeometry x="0.0233" relative="1" as="geometry">
            <mxPoint x="644.5" y="250" as="sourcePoint" />
            <Array as="points">
              <mxPoint x="185" y="250" />
            </Array>
            <mxPoint x="100" y="250" as="targetPoint" />
            <mxPoint as="offset" />
          </mxGeometry>
        </mxCell>
        <mxCell id="qPt5Wxt3EMSxar55PLhZ-2" value="Notify artist of accepted offer for order fulfillment()" style="html=1;verticalAlign=bottom;endArrow=block;edgeStyle=elbowEdgeStyle;elbow=vertical;curved=0;rounded=0;" parent="1" source="ZhXPPXgodXc87nbnoY75-26" target="ZhXPPXgodXc87nbnoY75-31" edge="1">
          <mxGeometry x="0.0755" relative="1" as="geometry">
            <mxPoint x="640" y="350" as="sourcePoint" />
            <Array as="points">
              <mxPoint x="494.75" y="350" />
            </Array>
            <mxPoint x="360" y="350" as="targetPoint" />
            <mxPoint as="offset" />
          </mxGeometry>
        </mxCell>
        <mxCell id="DhQO_6RYLs_zfJR8aaYj-1" value="alt" style="shape=umlFrame;whiteSpace=wrap;html=1;pointerEvents=0;fillColor=#f8cecc;strokeColor=#b85450;" parent="1" vertex="1">
          <mxGeometry x="420" y="1240" width="910" height="120" as="geometry" />
        </mxCell>
        <mxCell id="DhQO_6RYLs_zfJR8aaYj-3" value="[Bid out of range ]" style="text;html=1;align=center;verticalAlign=middle;whiteSpace=wrap;rounded=0;" parent="1" vertex="1">
          <mxGeometry x="430" y="1318" width="110" height="30" as="geometry" />
        </mxCell>
        <mxCell id="DhQO_6RYLs_zfJR8aaYj-4" value="[Bid in range ]" style="text;html=1;align=center;verticalAlign=middle;whiteSpace=wrap;rounded=0;" parent="1" vertex="1">
          <mxGeometry x="430" y="1275" width="80" height="30" as="geometry" />
        </mxCell>
        <mxCell id="DhQO_6RYLs_zfJR8aaYj-7" value="" style="endArrow=none;dashed=1;html=1;rounded=0;exitX=0.001;exitY=0.685;exitDx=0;exitDy=0;exitPerimeter=0;entryX=1;entryY=0.649;entryDx=0;entryDy=0;entryPerimeter=0;" parent="1" edge="1">
          <mxGeometry width="50" height="50" relative="1" as="geometry">
            <mxPoint x="420.90999999999985" y="1317.0700000000002" as="sourcePoint" />
            <mxPoint x="1330" y="1316.9499999999996" as="targetPoint" />
          </mxGeometry>
        </mxCell>
        <mxCell id="DhQO_6RYLs_zfJR8aaYj-10" value="Bid rejected" style="html=1;verticalAlign=bottom;endArrow=open;dashed=1;endSize=8;edgeStyle=elbowEdgeStyle;elbow=horizontal;curved=0;rounded=0;" parent="1" source="zpv97-H2XaEhjDYaw_ze-14" target="zpv97-H2XaEhjDYaw_ze-6" edge="1">
          <mxGeometry x="0.5021" relative="1" as="geometry">
            <mxPoint x="1010" y="1341" as="targetPoint" />
            <Array as="points">
              <mxPoint x="1038" y="1341" />
            </Array>
            <mxPoint x="1230" y="1341" as="sourcePoint" />
            <mxPoint as="offset" />
          </mxGeometry>
        </mxCell>
        <mxCell id="DhQO_6RYLs_zfJR8aaYj-13" value="Terminate auction()" style="text;html=1;align=center;verticalAlign=middle;whiteSpace=wrap;rounded=0;" parent="1" vertex="1">
          <mxGeometry x="1070" y="1360" width="140" height="30" as="geometry" />
        </mxCell>
        <mxCell id="6Epd3jJX5GHwWJq-SWlq-2" value="Select Specific Customization request()" style="html=1;verticalAlign=bottom;endArrow=block;edgeStyle=elbowEdgeStyle;elbow=vertical;curved=0;rounded=0;" parent="1" edge="1">
          <mxGeometry x="0.1168" relative="1" as="geometry">
            <mxPoint x="355" y="156" as="sourcePoint" />
            <Array as="points">
              <mxPoint x="630" y="156" />
            </Array>
            <mxPoint x="645" y="156" as="targetPoint" />
            <mxPoint as="offset" />
          </mxGeometry>
        </mxCell>
        <mxCell id="6Epd3jJX5GHwWJq-SWlq-3" value="Notify artist of declined offer()" style="html=1;verticalAlign=bottom;endArrow=block;edgeStyle=elbowEdgeStyle;elbow=vertical;curved=0;rounded=0;" parent="1" source="ZhXPPXgodXc87nbnoY75-26" edge="1">
          <mxGeometry x="0.0755" relative="1" as="geometry">
            <mxPoint x="640" y="422" as="sourcePoint" />
            <Array as="points">
              <mxPoint x="493.75" y="422" />
            </Array>
            <mxPoint x="354" y="422" as="targetPoint" />
            <mxPoint as="offset" />
          </mxGeometry>
        </mxCell>
        <mxCell id="UcIUSxFzb96O1rJ910P3-2" value="&amp;nbsp;Display customization request Details()" style="html=1;verticalAlign=bottom;endArrow=block;edgeStyle=elbowEdgeStyle;elbow=vertical;curved=0;rounded=0;" parent="1" source="ZhXPPXgodXc87nbnoY75-26" target="ZhXPPXgodXc87nbnoY75-6" edge="1">
          <mxGeometry x="0.1168" relative="1" as="geometry">
            <mxPoint x="640" y="180" as="sourcePoint" />
            <Array as="points">
              <mxPoint x="625" y="180" />
            </Array>
            <mxPoint x="360" y="180" as="targetPoint" />
            <mxPoint as="offset" />
          </mxGeometry>
        </mxCell>
        <mxCell id="xekCJxQsQ1gRJI4eN-mB-3" value="" style="endArrow=classic;html=1;rounded=0;" parent="1" edge="1">
          <mxGeometry width="50" height="50" relative="1" as="geometry">
            <mxPoint x="1240" y="1303" as="sourcePoint" />
            <mxPoint x="1240" y="1280" as="targetPoint" />
            <Array as="points">
              <mxPoint x="1200" y="1303" />
              <mxPoint x="1200" y="1280" />
            </Array>
          </mxGeometry>
        </mxCell>
        <mxCell id="xekCJxQsQ1gRJI4eN-mB-5" value="" style="endArrow=classic;html=1;rounded=0;" parent="1" edge="1">
          <mxGeometry width="50" height="50" relative="1" as="geometry">
            <mxPoint x="1240" y="1393" as="sourcePoint" />
            <mxPoint x="1240" y="1370" as="targetPoint" />
            <Array as="points">
              <mxPoint x="1200" y="1393" />
              <mxPoint x="1200" y="1370" />
            </Array>
          </mxGeometry>
        </mxCell>
        <mxCell id="xekCJxQsQ1gRJI4eN-mB-6" value="" style="endArrow=classic;html=1;rounded=0;" parent="1" edge="1">
          <mxGeometry width="50" height="50" relative="1" as="geometry">
            <mxPoint x="1240" y="1233" as="sourcePoint" />
            <mxPoint x="1240" y="1210" as="targetPoint" />
            <Array as="points">
              <mxPoint x="1200" y="1233" />
              <mxPoint x="1200" y="1210" />
            </Array>
          </mxGeometry>
        </mxCell>
        <mxCell id="xekCJxQsQ1gRJI4eN-mB-7" value="" style="endArrow=classic;html=1;rounded=0;" parent="1" edge="1">
          <mxGeometry width="50" height="50" relative="1" as="geometry">
            <mxPoint x="1240" y="1140" as="sourcePoint" />
            <mxPoint x="1240" y="1117" as="targetPoint" />
            <Array as="points">
              <mxPoint x="1200" y="1140" />
              <mxPoint x="1200" y="1117" />
            </Array>
          </mxGeometry>
        </mxCell>
      </root>
    </mxGraphModel>
  </diagram>
</mxfile>
